PathFileType	4	(X/Y/Z)	/Users/itak/Documents/Research/Walk-IL/dataset/trc/00549_00009.trc
DataRate	CameraRate	NumFrames	NumMarkers	Units	OrigDataRate	OrigDataStartFrame	OrigNumFrames
100.000000	100.000000	4	53	mm	100.000000	346	555
Frame#	Time	RPSI			LPSI			L3			STRN			T10			C7			CLAV			RBAK			LBAK			LSHO			LUPA			LAEL			LAOL			LWTS			LWPS			LFRA			LIFD			LHPS			LHTS			RSHO			RUPA			RAEL			RAOL			RWTS			RWPS			RFRA			RIFD			RHTS			RHPS			RBHD			LFHD			RFHD			LBHD			LHIP			RHIP			RASI			LASI			LKNE			LTHI			LANK			LTIP			LTOE			LMT1			LMT5			LHEE			RKNE			RTHI			RANK			RTIP			RTOE			RMT1			RMT5			RHEE			
		X1	Y1	Z1	X2	Y2	Z2	X3	Y3	Z3	X4	Y4	Z4	X5	Y5	Z5	X6	Y6	Z6	X7	Y7	Z7	X8	Y8	Z8	X9	Y9	Z9	X10	Y10	Z10	X11	Y11	Z11	X12	Y12	Z12	X13	Y13	Z13	X14	Y14	Z14	X15	Y15	Z15	X16	Y16	Z16	X17	Y17	Z17	X18	Y18	Z18	X19	Y19	Z19	X20	Y20	Z20	X21	Y21	Z21	X22	Y22	Z22	X23	Y23	Z23	X24	Y24	Z24	X25	Y25	Z25	X26	Y26	Z26	X27	Y27	Z27	X28	Y28	Z28	X29	Y29	Z29	X30	Y30	Z30	X31	Y31	Z31	X32	Y32	Z32	X33	Y33	Z33	X34	Y34	Z34	X35	Y35	Z35	X36	Y36	Z36	X37	Y37	Z37	X38	Y38	Z38	X39	Y39	Z39	X40	Y40	Z40	X41	Y41	Z41	X42	Y42	Z42	X43	Y43	Z43	X44	Y44	Z44	X45	Y45	Z45	X46	Y46	Z46	X47	Y47	Z47	X48	Y48	Z48	X49	Y49	Z49	X50	Y50	Z50	X51	Y51	Z51	X52	Y52	Z52	X53	Y53	Z53	

347	3.46	803.064697265625	1009.759826660156	325.4103088378906	803.7939453125	1006.895751953125	191.7976684570312	808.0463256835938	1106.1826171875	257.1909790039062	1042.558715820312	1294.445556640625	249.3292541503906	801.7493286132812	1231.556030273438	258.9590148925781	850.0126342773438	1503.649658203125	279.1932373046875	1023.384887695312	1405.278442382812	252.8917083740234	786.3599853515625	1378.966796875	367.0896606445312	809.272705078125	1452.734619140625	189.8838500976562	900.5777587890625	1479.830932617188	102.0450057983398	878.3272705078125	1356.832153320312	19.87703132629395	880.9363403320312	1136.611083984375	-12.18122291564941	800.8212280273438	1132.067016601562	47.19305419921875	968.0866088867188	888.0089111328125	13.44463920593262	913.356689453125	869.7609252929688	-52.25522994995117	898.8037719726562	1049.561767578125	-25.96194076538086	956.4923706054688	717.8516235351562	2.930489063262939	919.9212646484375	809.4021606445312	-46.9022216796875	977.423095703125	810.70361328125	-10.1836109161377	922.1741333007812	1465.498046875	428.0416259765625	907.3892822265625	1402.115844726562	496.4319763183594	907.4024658203125	1116.318725585938	551.4025268554688	851.2197265625	1095.1513671875	529.2374877929688	1060.440551757812	911.7877807617188	506.6947937011719	1021.950500488281	886.4597778320312	574.4931640625	922.4514770507812	1062.288208007812	559.7159423828125	1094.503662109375	740.81103515625	512.8069458007812	1099.765380859375	824.4632568359375	519.88525390625	1046.52783203125	815.035400390625	570.8560180664062	934.0895385742188	1682.090209960938	342.7003479003906	1082.91552734375	1707.964965820312	199.6759033203125	1073.41357421875	1700.782836914062	343.8139343261719	952.154541015625	1688.2890625	178.6583709716797	939.0015258789062	934.4337158203125	64.55628204345703	925.9501342773438	941.3170166015625	449.0802307128906	1014.529663085938	973.0088500976562	392.8919677734375	1012.426086425781	964.4495239257812	118.2502822875977	1115.76806640625	517.7645874023438	97.88623809814453	1054.128173828125	676.8112182617188	69.05841827392578	912.8435668945312	71.47793579101562	94.17519378662109	990.7858276367188	290.3883361816406	90.00223541259766	1122.798461914062	55.4815673828125	109.7189331054688	1061.378662109375	59.68256378173828	157.2062377929688	1025.515991210938	53.94779586791992	57.57582092285156	858.0718383789062	88.40164947509766	158.7342224121094	949.499755859375	496.4021911621094	374.7531433105469	970.6334228515625	785.7418212890625	432.1521301269531	841.8884887695312	39.74221801757812	318.4485168457031	942.4808349609375	353.7789916992188	349.2760009765625	1063.511596679688	41.7355842590332	282.499755859375	1001.227233886719	45.91190338134766	241.7541198730469	973.610107421875	38.00133895874023	345.3457946777344	789.2948608398438	38.70635986328125	259.724609375	
348	3.47	809.2290649414062	1009.591247558594	325.1295471191406	809.985595703125	1006.510559082031	191.4658508300781	814.3369750976562	1105.8466796875	256.9913024902344	1049.0654296875	1293.969604492188	249.0374755859375	808.161865234375	1231.287841796875	258.7990112304688	856.7060546875	1503.326782226562	279.186279296875	1029.985717773438	1404.799682617188	252.5641632080078	793.0736694335938	1378.682006835938	367.1651306152344	815.816162109375	1452.437866210938	189.9190979003906	907.03759765625	1479.471923828125	101.9525375366211	884.4583740234375	1356.464111328125	19.88360786437988	886.47314453125	1136.208618164062	-12.02862644195557	806.525634765625	1131.847778320312	47.72827529907227	972.9568481445312	887.3412475585938	13.57337665557861	918.0074462890625	869.22607421875	-51.96072006225586	904.0421752929688	1049.080932617188	-25.73760032653809	960.82568359375	717.2044677734375	3.219913721084595	924.376220703125	808.82421875	-46.56868743896484	981.997802734375	809.9865112304688	-10.04717636108398	929.0811157226562	1465.037841796875	427.9039001464844	914.3666381835938	1401.665649414062	496.2797546386719	915.1866455078125	1115.953857421875	551.5545654296875	859.0064086914062	1094.59228515625	529.6407470703125	1068.935302734375	912.166259765625	506.1328125	1030.81201171875	886.5930786132812	574.0612182617188	930.447265625	1061.952758789062	559.8203125	1103.940185546875	741.403076171875	512.0152587890625	1108.812133789062	825.0635986328125	519.120849609375	1055.860473632812	815.3298950195312	570.2825317382812	940.8927612304688	1681.644775390625	342.6670837402344	1089.597534179688	1707.51171875	199.4721374511719	1080.238159179688	1700.335083007812	343.6082458496094	958.8126831054688	1687.857421875	178.5765228271484	945.431884765625	934.1011962890625	64.33760833740234	931.7435913085938	941.0806884765625	448.9802856445312	1020.528503417969	972.4541015625	392.8791809082031	1018.734985351562	964.1321411132812	118.2664947509766	1125.85498046875	519.2943115234375	99.53893280029297	1062.288696289062	677.3228149414062	69.63095092773438	939.9747924804688	65.90892028808594	93.15641784667969	1009.498291015625	287.5581359863281	89.96939849853516	1150.226196289062	56.64260482788086	111.6155776977539	1087.989501953125	59.02462387084961	158.1908111572266	1053.749877929688	52.09747314453125	58.13935089111328	883.8490600585938	80.94846343994141	156.9125213623047	951.602783203125	496.0663452148438	374.75048828125	977.5257568359375	785.1622924804688	430.785400390625	841.9099731445312	39.8083381652832	318.4330444335938	943.8121948242188	353.5398864746094	349.3275146484375	1063.498779296875	41.75622940063477	282.5567932128906	1001.406127929688	46.12927627563477	241.9451599121094	973.5802001953125	37.9936637878418	345.3861083984375	789.2623291015625	38.78824234008789	259.5728759765625	
349	3.48	815.3798828125	1009.361572265625	324.867431640625	816.19140625	1006.070556640625	191.1429443359375	820.6075439453125	1105.4541015625	256.7534484863281	1055.547241210938	1293.439819335938	248.7022705078125	814.5239868164062	1230.9658203125	258.563720703125	863.3697509765625	1502.948120117188	279.0949401855469	1036.5595703125	1404.26904296875	252.1662445068359	799.7476196289062	1378.327758789062	367.123779296875	822.3457641601562	1452.083862304688	189.8651885986328	913.51318359375	1479.061889648438	101.7821044921875	890.6497802734375	1356.034545898438	19.81734848022461	892.1148681640625	1135.72509765625	-11.91549396514893	812.3203735351562	1131.537475585938	48.23896408081055	977.9636840820312	886.6064453125	13.69729804992676	922.8070678710938	868.6176147460938	-51.6798210144043	909.4093627929688	1048.529418945312	-25.54680252075195	965.2892456054688	716.491455078125	3.530044794082642	928.9857788085938	808.1797485351562	-46.24744033813477	986.7151489257812	809.2008666992188	-9.905599594116211	935.9052124023438	1464.505493164062	427.690673828125	921.2598266601562	1401.138061523438	496.0555114746094	922.8817749023438	1115.50732421875	551.594970703125	866.69384765625	1093.962280273438	529.9058837890625	1077.244995117188	912.3795166015625	505.5555725097656	1039.462280273438	886.5984497070312	573.5936279296875	938.3223266601562	1061.538818359375	559.820556640625	1113.105712890625	741.8099975585938	511.2341003417969	1117.6181640625	825.4808349609375	518.3598022460938	1064.9345703125	815.4751586914062	569.6947631835938	947.6653442382812	1681.139892578125	342.5735473632812	1096.28857421875	1707.000610351562	199.2554779052734	1087.027221679688	1699.817504882812	343.3887023925781	965.4757690429688	1687.381713867188	178.4470977783203	951.8272094726562	933.7056274414062	64.06263732910156	937.6126708984375	940.793701171875	448.8441772460938	1026.55615234375	971.8649291992188	392.8159790039062	1025.013671875	963.7394409179688	118.2375869750977	1135.582885742188	520.692626953125	101.0977783203125	1070.25390625	677.740966796875	70.16684722900391	966.9102783203125	60.96009826660156	92.39964294433594	1028.040771484375	284.9718933105469	90.04167938232422	1177.187133789062	57.82900238037109	113.922607421875	1114.1611328125	58.54332733154297	159.5516357421875	1081.628784179688	50.55953598022461	59.07904434204102	909.5394287109375	74.20291900634766	155.3171234130859	953.8657836914062	495.7337951660156	374.6732177734375	984.9920043945312	784.4246215820312	429.208740234375	841.9373779296875	39.88630676269531	318.418701171875	945.2630004882812	353.2821655273438	349.3091125488281	1063.475952148438	41.78916931152344	282.6115112304688	1001.589538574219	46.32390213012695	242.1244812011719	973.5452270507812	37.99037551879883	345.4174194335938	789.23779296875	38.87564849853516	259.4013366699219	
350	3.49	821.5408935546875	1009.07373046875	324.6094360351562	822.4259643554688	1005.583068847656	190.8253479003906	826.8491821289062	1105.01513671875	256.476318359375	1062.009765625	1292.864868164062	248.3283996582031	820.8307495117188	1230.595825195312	258.2523498535156	870.0077514648438	1502.519897460938	278.9181823730469	1043.1064453125	1403.698608398438	251.7000732421875	806.384033203125	1377.91259765625	366.9719848632812	828.8662109375	1451.678100585938	189.7215270996094	920.0068969726562	1478.604125976562	101.532470703125	896.90283203125	1355.546997070312	19.67793655395508	897.8583374023438	1135.164184570312	-11.83517837524414	818.2096557617188	1131.142944335938	48.71124649047852	983.1134643554688	885.80810546875	13.81336307525635	927.7659912109375	867.9400634765625	-51.42330551147461	914.9107666015625	1047.912231445312	-25.39522171020508	969.8997802734375	715.7203979492188	3.848196029663086	933.7608642578125	807.4737548828125	-45.94554901123047	991.582763671875	808.3517456054688	-9.760213851928711	942.6419067382812	1463.912841796875	427.3985900878906	928.0794677734375	1400.546752929688	495.7639465332031	930.487060546875	1114.989379882812	551.5188598632812	874.2830200195312	1093.2734375	530.0234375	1085.369384765625	912.4340209960938	504.9628295898438	1047.896484375	886.48193359375	573.0924072265625	946.0787963867188	1061.058227539062	559.7164306640625	1121.988525390625	742.0325317382812	510.4706726074219	1126.171142578125	825.7164306640625	517.610595703125	1073.734252929688	815.4692993164062	569.0960083007812	954.4107055664062	1680.583984375	342.4115295410156	1102.99658203125	1706.435668945312	199.0238800048828	1093.784057617188	1699.23486328125	343.1549072265625	972.152099609375	1686.8671875	178.2653961181641	958.2008666992188	933.2611083984375	63.74150466918945	943.55419921875	940.465576171875	448.6843872070312	1032.611938476562	971.2484130859375	392.7158203125	1031.276245117188	963.2830200195312	118.1688690185547	1144.931884765625	521.940673828125	102.5456771850586	1078.036010742188	678.073974609375	70.6756591796875	993.5960693359375	56.60607147216797	91.93025207519531	1046.358032226562	282.6180725097656	90.23268127441406	1203.676025390625	58.9979362487793	116.6296081542969	1139.884399414062	58.19507598876953	161.2814331054688	1109.12158203125	49.29314804077148	60.38816833496094	935.0949096679688	68.17227172851562	154.0084228515625	956.2559204101562	495.4085693359375	374.5392150878906	992.8547973632812	783.5732421875	427.4934387207031	841.971435546875	39.98387908935547	318.4008178710938	946.79833984375	353.0157470703125	349.2269287109375	1063.43994140625	41.83569717407227	282.6646118164062	1001.73876953125	46.44477081298828	242.2534484863281	973.50927734375	37.98856353759766	345.4379577636719	789.229248046875	38.98410415649414	259.2288513183594	
